<svg width="20" height="20" viewBox="0 0 20 20" fill="none" xmlns="http://www.w3.org/2000/svg">
<path d="M17.3109 3.83669C16.8853 3.41436 16.3806 3.08004 15.8257 2.85281C15.2709 2.62559 14.6767 2.50991 14.0771 2.51239C13.4775 2.51487 12.8843 2.63546 12.3313 2.86727C11.7783 3.09909 11.2764 3.43757 10.8543 3.8634L9.97824 4.74674L9.09491 3.87068C8.23517 3.01803 7.07192 2.54182 5.86107 2.54683C4.65022 2.55184 3.49095 3.03766 2.63829 3.8974C1.78564 4.75714 1.30943 5.92039 1.31444 7.13124C1.31945 8.34209 1.80527 9.50136 2.66501 10.354L3.54835 11.2301L10.0317 17.66L16.4616 11.1766L17.3376 10.2933C17.76 9.86767 18.0943 9.363 18.3215 8.80813C18.5487 8.25326 18.6644 7.65905 18.6619 7.05946C18.6594 6.45987 18.5389 5.86664 18.307 5.31366C18.0752 4.76069 17.7367 4.25881 17.3109 3.83669Z" fill="#FF234F"/>
</svg>
