<svg width="9" height="14" viewBox="0 0 9 14" fill="none" xmlns="http://www.w3.org/2000/svg">
<path d="M4.35968 3.91365e-05C1.94142 0.0100459 -0.0099716 1.96974 3.15126e-05 4.38712C0.0173277 8.56697 4.41761 14 4.41761 14C4.41761 14 8.77277 8.52987 8.75548 4.35089C8.74548 1.93439 6.77793 -0.00996759 4.35968 3.91365e-05ZM4.38776 6.78639C3.76079 6.78898 3.15848 6.54241 2.71331 6.10091C2.26815 5.65942 2.0166 5.05916 2.01401 4.4322C2.01141 3.80523 2.25798 3.20292 2.69948 2.75775C3.14097 2.31259 3.74123 2.06104 4.36819 2.05844C4.99516 2.05585 5.59747 2.30242 6.04264 2.74392C6.4878 3.18541 6.73935 3.78567 6.74195 4.41263C6.74454 5.0396 6.49797 5.64191 6.05647 6.08708C5.61498 6.53224 5.01472 6.78379 4.38776 6.78639Z" fill="#FFC845"/>
</svg>
